<?xml version="1.0" encoding="UTF-8"?>
<svg version="1.1" xmlns="http://www.w3.org/2000/svg" width="916" height="916">
<path d="M0 0 C302.28 0 604.56 0 916 0 C916 302.28 916 604.56 916 916 C613.72 916 311.44 916 0 916 C0 613.72 0 311.44 0 0 Z " fill="#000000" transform="translate(0,0)"/>
<path d="M0 0 C0.80052292 -0.00073013 1.60104584 -0.00146027 2.42582703 -0.00221252 C5.06152026 0.0012601 7.69542759 0.04010361 10.33081055 0.0793457 C12.16211481 0.08867504 13.99343159 0.09579058 15.82475281 0.1007843 C20.63700007 0.11984469 25.44848877 0.16893712 30.26043701 0.2243042 C35.17376444 0.27551744 40.08721483 0.29830277 45.00073242 0.32348633 C54.63583072 0.37705687 64.27036685 0.46235801 73.9050293 0.56762695 C76.8221832 6.27556916 79.5879997 11.96417342 81.97143555 17.9152832 C82.24261703 18.58841049 82.51379852 19.26153778 82.79319763 19.95506287 C83.38004607 21.41292173 83.96504357 22.87152682 84.54833984 24.33081055 C85.83529171 27.55007022 87.13171757 30.7654903 88.42758179 33.98117065 C89.13164579 35.72833208 89.83526959 37.47567096 90.53848267 39.22317505 C94.53000564 49.13643173 98.5743328 59.02803912 102.61831665 68.91998291 C109.45065401 85.63371153 116.26352199 102.3550929 123.03515625 119.09350586 C126.7715885 128.32550398 130.52933357 137.54859439 134.29956055 146.7668457 C148.21580331 180.80113023 161.81529706 214.83666496 173.9050293 249.56762695 C174.12304199 248.94686279 174.34105469 248.32609863 174.56567383 247.68652344 C182.01989403 226.61740029 190.30774801 205.89938149 198.64257812 185.16601562 C199.60515165 182.77127633 200.5676363 180.37650131 201.5300293 177.98168945 C202.23400093 176.22998192 202.23400093 176.22998192 202.95219421 174.44288635 C206.77195672 164.92583666 210.52067461 155.38300027 214.2175293 145.81762695 C219.20488989 132.92085979 224.25280281 120.04936529 229.3425293 107.19262695 C229.70247986 106.28320343 230.06243042 105.37377991 230.43328857 104.4367981 C232.23192857 99.89279381 234.03118111 95.34903243 235.83081055 90.80541992 C238.70232959 83.55506785 241.57070815 76.30347752 244.4357605 69.05056763 C245.03711357 67.52827186 245.63861348 66.00603408 246.24026489 64.4838562 C250.11980491 54.66685994 253.97322635 44.83994369 257.80737305 35.00512695 C258.22153976 33.94352859 258.63570648 32.88193024 259.06242371 31.78816223 C261.10492896 26.5527408 263.14488905 21.31635698 265.18017578 16.078125 C265.91907522 14.18265403 266.65808332 12.28722542 267.3972168 10.3918457 C267.73812851 9.51153687 268.07904022 8.63122803 268.43028259 7.72424316 C268.74276443 6.92450073 269.05524628 6.1247583 269.37719727 5.30078125 C269.64950165 4.60043259 269.92180603 3.90008392 270.20236206 3.17851257 C270.9050293 1.56762695 270.9050293 1.56762695 271.9050293 0.56762695 C274.46988512 0.45127892 277.00818483 0.39962987 279.57421875 0.390625 C280.37748596 0.3840538 281.18075317 0.3774826 282.00836182 0.37071228 C284.67834556 0.3509305 287.34827294 0.33930567 290.01831055 0.3293457 C290.92810354 0.32527018 291.83789654 0.32119465 292.77525902 0.31699562 C297.59089305 0.29611367 302.40649841 0.2818214 307.22216797 0.27246094 C312.2025626 0.2613943 317.18251068 0.22699764 322.16274738 0.18728924 C325.98629093 0.16117121 329.80972736 0.15277338 333.63335228 0.14917946 C335.4694031 0.14430071 337.30544873 0.13265023 339.14141273 0.11414146 C341.71052236 0.08985267 344.27846751 0.09069598 346.84765625 0.09765625 C347.6078154 0.08484619 348.36797455 0.07203613 349.15116882 0.05883789 C352.43456469 0.09129572 354.45134082 0.22135781 357.10014963 2.243011 C359.34671235 5.13649782 359.40605173 6.61423016 359.40839386 10.24922943 C359.41882485 11.41469756 359.42925584 12.58016568 359.44000292 13.78095102 C359.43108003 15.06225696 359.42215714 16.3435629 359.41296387 17.66369629 C359.41757168 19.03786299 359.42392379 20.41202477 359.43187284 21.7861762 C359.44860615 25.56627411 359.44030192 29.34596927 359.42792797 33.12606883 C359.41889604 37.20112414 359.43283794 41.27610908 359.44384766 45.35115051 C359.46165739 53.33571653 359.45778201 61.32013235 359.44619709 69.30470431 C359.43717268 75.79247881 359.43593447 82.28021114 359.44029236 88.76799011 C359.44090529 89.69048855 359.44151822 90.612987 359.44214973 91.56343994 C359.4434286 93.43733189 359.44472545 95.31122383 359.44604009 97.18511575 C359.45745308 114.76690135 359.44432093 132.34860359 359.42283863 149.93037552 C359.40496699 165.02450759 359.4080709 180.11851663 359.42651367 195.21264648 C359.44790771 212.73044502 359.45635438 230.24817047 359.44406462 247.76598024 C359.44279039 249.63307475 359.4415329 251.50016927 359.44029236 253.36726379 C359.43936671 254.74532267 359.43936671 254.74532267 359.43842235 256.15122113 C359.43496504 262.63307372 359.44080598 269.11488004 359.45021057 275.59672546 C359.46141566 283.49328101 359.45842201 291.38967745 359.4370876 299.28621471 C359.42655699 303.31710753 359.42248931 307.34773486 359.4356842 311.37862587 C359.44757273 315.066138 359.44110488 318.75313768 359.419774 322.44060308 C359.41316412 324.4118368 359.4262757 326.38310588 359.44000292 328.35430288 C359.42435643 330.10250507 359.42435643 330.10250507 359.40839386 331.88602448 C359.40774445 332.89391226 359.40709504 333.90180005 359.40642595 334.94022989 C358.76670289 338.29247902 357.55440461 339.48194983 354.9050293 341.56762695 C352.32495117 342.07556152 352.32495117 342.07556152 349.3737793 342.08520508 C348.26583008 342.09781372 347.15788086 342.11042236 346.01635742 342.12341309 C344.82461914 342.11531616 343.63288086 342.10721924 342.4050293 342.09887695 C340.56328125 342.10461731 340.56328125 342.10461731 338.68432617 342.11047363 C336.08861471 342.11319537 333.49287594 342.10581607 330.8972168 342.08911133 C326.9200333 342.0677077 322.94465648 342.08890658 318.9675293 342.11450195 C316.44669197 342.11185873 313.92585577 342.10673386 311.4050293 342.09887695 C310.21329102 342.10697388 309.02155273 342.1150708 307.79370117 342.12341309 C306.13177734 342.10450012 306.13177734 342.10450012 304.4362793 342.08520508 C303.46239258 342.08202271 302.48850586 342.07884033 301.48510742 342.07556152 C297.96865967 341.38328583 297.02845374 340.47077901 294.9050293 337.56762695 C294.29934203 334.42603766 294.35873097 331.31837927 294.38604736 328.12713623 C294.37479549 326.67643215 294.37479549 326.67643215 294.3633163 325.19642091 C294.34297415 321.94721869 294.35115478 318.69870996 294.35913086 315.44946289 C294.35039942 313.12377225 294.33991516 310.79808761 294.32780457 308.47241211 C294.29987158 302.15048902 294.2965415 295.82876124 294.29752445 289.50678539 C294.29471788 283.57178192 294.27360638 277.63686783 294.25255784 271.70190528 C294.21146444 259.94654327 294.18816081 248.19121596 294.17602539 236.43579102 C294.16419891 225.01648624 294.14400609 213.59724682 294.11254883 202.17797852 C294.11061273 201.47409845 294.10867662 200.77021839 294.10668185 200.04500863 C294.09691735 196.51384996 294.08698823 192.98269177 294.07697725 189.45153379 C293.9941389 160.15693534 293.9404595 130.86232098 293.9050293 101.56762695 C293.68323407 102.14028258 293.46143885 102.71293821 293.23292255 103.30294704 C290.88559825 109.36321696 288.53752076 115.42319467 286.18904114 121.48301697 C285.31729342 123.7326804 284.44572614 125.98241377 283.57435608 128.23222351 C278.28786999 141.88110423 272.97888347 155.52032364 267.5925293 169.13012695 C267.11040804 170.34859107 267.11040804 170.34859107 266.61854696 171.59167063 C265.7297947 173.83761326 264.84088785 176.08349462 263.9519043 178.3293457 C259.05943652 190.69151826 254.20216756 203.06752126 249.3425293 215.44262695 C248.40389614 217.83252195 247.46525679 220.22241452 246.52661133 222.61230469 C243.6524294 229.93061931 240.77869057 237.24910788 237.9050293 244.56762695 C235.98059794 249.4686874 234.05612763 254.36973254 232.1315918 259.27075195 C231.65955826 260.47283798 231.18752472 261.67492401 230.70118713 262.91343689 C227.03729648 272.24327484 223.37087322 281.57211588 219.70335388 290.90052795 C217.25616114 297.12607 214.81282663 303.35310325 212.37364197 309.58178711 C210.96141993 313.18649493 209.5464759 316.79012972 208.13082886 320.39349365 C207.48789959 322.03187248 206.84620627 323.67073693 206.20584106 325.31011963 C205.34315531 327.51832494 204.4762088 329.72480901 203.6081543 331.9309082 C203.13023437 333.15076416 202.65231445 334.37062012 202.15991211 335.62744141 C200.9050293 338.56762695 200.9050293 338.56762695 198.9050293 341.56762695 C196.72836304 341.9283905 196.72836304 341.9283905 193.99633789 341.90820312 C192.46497696 341.90786324 192.46497696 341.90786324 190.90267944 341.90751648 C189.79743927 341.89203262 188.6921991 341.87654877 187.5534668 341.8605957 C185.8597142 341.85422844 185.8597142 341.85422844 184.13174438 341.84773254 C180.51426657 341.83089827 176.8973396 341.7932367 173.2800293 341.75512695 C170.83212066 341.74008629 168.38420331 341.72639681 165.9362793 341.71411133 C159.9256737 341.68097922 153.91539084 341.63073274 147.9050293 341.56762695 C142.64639338 331.66578851 138.49989567 321.43525937 134.37768555 311.0246582 C133.64135039 309.17675011 132.90450944 307.3290435 132.16720581 305.48152161 C130.58795774 301.52165034 129.01182708 297.5605588 127.4382019 293.59844971 C124.93632183 287.2994825 122.42749402 281.00329885 119.91699219 274.70776367 C119.49109645 273.63974392 119.06520071 272.57172417 118.62639904 271.47134018 C117.75583357 269.28830026 116.88523774 267.10527244 116.0146122 264.92225647 C114.68376959 261.5847092 113.35358316 258.24690095 112.02348328 254.90905762 C105.76915153 239.21781183 99.48419758 223.53906523 93.1784668 207.8684082 C92.74207067 206.78382387 92.30567455 205.69923954 91.85605431 204.58178902 C88.03486411 195.08575665 84.21153926 185.59058449 80.38650513 176.09609985 C72.65576624 156.90608602 64.9298457 137.71488739 57.34643555 118.46606445 C57.06965406 117.76392445 56.79287258 117.06178444 56.50770378 116.33836746 C52.09294519 105.13137462 52.09294519 105.13137462 50.9050293 101.56762695 C50.90356274 102.7802206 50.90209618 103.99281425 50.90058517 105.24215317 C50.86489796 134.01429072 50.80867822 162.78633902 50.72710834 191.55838142 C50.71709066 195.09824671 50.70724657 198.63811245 50.69750977 202.17797852 C50.69556839 202.88271436 50.69362702 203.5874502 50.69162682 204.31354168 C50.66058948 215.73072043 50.64362134 227.14787906 50.63183507 238.56509206 C50.61943247 250.27661736 50.5919513 261.98803696 50.55041623 273.69949555 C50.52773815 280.2791895 50.51212242 286.85873243 50.51314545 293.43846893 C50.51388831 299.62727153 50.49608823 305.8157395 50.46386147 312.00445557 C50.45531946 314.27969081 50.45364146 316.5549634 50.45922661 318.83020782 C50.46582328 321.92957961 50.44804958 325.0278731 50.42401123 328.12713623 C50.43177165 329.03374866 50.43953207 329.94036109 50.44752765 330.87444663 C50.36385917 336.94110787 50.36385917 336.94110787 48.03147507 340.12591171 C45.33988944 341.95078779 43.70622699 342.07441884 40.46557617 342.08520508 C39.37764771 342.09781372 38.28971924 342.11042236 37.16882324 342.12341309 C35.99895874 342.11531616 34.82909424 342.10721924 33.6237793 342.09887695 C31.81532532 342.10461731 31.81532532 342.10461731 29.97033691 342.11047363 C27.42170375 342.11319521 24.87304276 342.10581701 22.32446289 342.08911133 C18.41969627 342.06770735 14.51676982 342.08890698 10.61206055 342.11450195 C8.13679606 342.11185872 5.66153272 342.10673385 3.1862793 342.09887695 C1.43148254 342.11102234 1.43148254 342.11102234 -0.35876465 342.12341309 C-1.44669312 342.11080444 -2.53462158 342.0981958 -3.65551758 342.08520508 C-4.6116394 342.08202271 -5.56776123 342.07884033 -6.55285645 342.07556152 C-9.9124183 341.40429445 -10.95917663 340.21600043 -13.0949707 337.56762695 C-13.59751803 334.94779259 -13.59751803 334.94779259 -13.60112858 331.90443516 C-13.61770011 330.16238311 -13.61770011 330.16238311 -13.63460642 328.38513809 C-13.62636565 327.10840522 -13.61812489 325.83167235 -13.6096344 324.51625061 C-13.6149582 323.14692051 -13.62202294 321.77759625 -13.63068146 320.40828317 C-13.6493582 316.64152608 -13.64298674 312.8751608 -13.63252842 309.10838711 C-13.62555056 305.04762066 -13.64152358 300.98693586 -13.65452576 296.92619324 C-13.67619497 288.96937277 -13.67603138 281.01269516 -13.66790021 273.05585486 C-13.66160638 266.59001729 -13.66273157 260.12422145 -13.66917229 253.65838432 C-13.67007394 252.73894997 -13.6709756 251.81951561 -13.67190458 250.8722196 C-13.67375573 249.00453038 -13.67561829 247.13684118 -13.67749213 245.26915198 C-13.69408086 227.74504405 -13.68534237 210.22101657 -13.66850656 192.69691347 C-13.65380945 176.65702298 -13.66843624 160.61731981 -13.69727672 144.57745344 C-13.7266546 128.11639155 -13.73764765 111.65541617 -13.72809452 95.1943292 C-13.72707194 93.3331146 -13.72607733 91.47189998 -13.72511101 89.61068535 C-13.72463462 88.69488425 -13.72415823 87.77908315 -13.7236674 86.83553051 C-13.7215011 80.37667459 -13.73131886 73.91790037 -13.74588203 67.45906258 C-13.76337957 59.58886239 -13.76332529 51.71890105 -13.74053038 43.84871037 C-13.72936441 39.83181325 -13.7262784 35.81533734 -13.74483109 31.7984581 C-13.76159084 28.12251883 -13.75534735 24.44736958 -13.7306143 20.77148192 C-13.72339145 18.80893146 -13.74080097 16.84633835 -13.75902563 14.88385922 C-13.65768199 5.38770837 -13.65768199 5.38770837 -10.78785324 2.28155899 C-7.19519916 -0.00504833 -4.12654597 -0.09906774 0 0 Z " fill="#FFFFFF" transform="translate(456.094970703125,218.432373046875)"/>
<path d="M0 0 C3.02964783 -0.39440918 3.02964783 -0.39440918 6.97241211 -0.41992188 C7.68964951 -0.42839142 8.4068869 -0.43686096 9.14585876 -0.44558716 C11.52319947 -0.46903815 13.89989601 -0.46997743 16.27734375 -0.46875 C17.92639935 -0.47584696 19.57545246 -0.48354526 21.22450256 -0.49182129 C24.68383647 -0.50528485 28.14294211 -0.50682664 31.60229492 -0.50097656 C36.03930669 -0.49507993 40.47522442 -0.52566056 44.9120245 -0.56609344 C48.31866881 -0.59192249 51.72504807 -0.59485226 55.13177681 -0.59120178 C56.76769319 -0.5928977 58.40362121 -0.60258544 60.03944206 -0.62034607 C62.32644035 -0.6424423 64.61120383 -0.63288488 66.89819336 -0.61523438 C68.85105507 -0.61831604 68.85105507 -0.61831604 70.84336853 -0.62145996 C74 0 74 0 75.84962463 2.30685425 C76.2292485 3.19559235 76.60887238 4.08433044 77 5 C77.27730957 5.62387604 77.55461914 6.24775208 77.84033203 6.89053345 C78.17073486 7.78897476 78.17073486 7.78897476 78.5078125 8.70556641 C78.76738739 9.40360382 79.02696228 10.10164124 79.29440308 10.8208313 C79.56850006 11.5734726 79.84259705 12.32611389 80.125 13.1015625 C80.42366974 13.90874725 80.72233948 14.71593201 81.03005981 15.5475769 C82.0246074 18.23838966 83.01216814 20.93171536 84 23.625 C84.71151076 25.55294338 85.42360089 27.48067302 86.13623047 29.40820312 C87.65096116 33.50614777 89.16351851 37.60488545 90.67480469 41.70410156 C94.07962699 50.93180812 97.51795562 60.14701966 100.95507812 69.36273193 C102.54426569 73.62430487 104.1320444 77.88640225 105.71990967 82.14846802 C111.94343134 98.85265808 118.17246429 115.55479367 124.40109253 132.25708008 C130.83268574 149.50368089 137.26195114 166.7511463 143.6875 184 C144.07505463 185.040354 144.46260925 186.08070801 144.86190796 187.15258789 C147.96022113 195.4698303 151.05830279 203.78715893 154.15637207 212.10449219 C158.8353524 224.66601676 163.51472722 237.22739415 168.19520569 249.7883606 C170.42886933 255.78291463 172.66218356 261.77759859 174.89501953 267.77246094 C177.15131012 273.83027916 179.40812687 279.8879011 181.66547871 285.94532394 C182.88000736 289.20446715 184.09430906 292.46369445 185.30801392 295.72314453 C186.66031547 299.35477416 188.01371499 302.9859941 189.3671875 306.6171875 C189.76224991 307.67863983 190.15731232 308.74009216 190.56434631 309.83370972 C191.13360085 311.36017624 191.13360085 311.36017624 191.71435547 312.91748047 C192.08107361 313.90746033 192.44779175 314.89744019 192.82562256 315.91741943 C193.6640765 318.11824664 194.53777339 320.30577924 195.43463135 322.48345947 C196.13625397 324.2050528 196.13625397 324.2050528 196.85205078 325.96142578 C197.28591095 326.99824493 197.71977112 328.03506409 198.16677856 329.103302 C199.35244903 333.22529061 198.75677215 335.53482757 196.82023621 339.28411865 C194.20781943 341.74676455 192.42716353 341.4824524 188.8762207 341.45410156 C187.61513992 341.45379944 186.35405914 341.45349731 185.05476379 341.45318604 C183.67842987 341.43275946 182.30210239 341.41189548 180.92578125 341.390625 C179.51760155 341.38316348 178.10941145 341.37747013 176.70121765 341.37347412 C172.99705271 341.35821038 169.29351638 341.31892336 165.58959961 341.2746582 C161.80916854 341.23372076 158.02863577 341.21546644 154.24804688 341.1953125 C146.83174484 341.15242883 139.41596054 341.0841698 132 341 C128.29877801 334.08246262 125.66871699 326.92663659 123.04296875 319.54296875 C122.57266735 318.23212025 122.10189854 316.92143937 121.63069153 315.61091614 C120.39445049 312.16911561 119.16401793 308.72526826 117.93499756 305.28088379 C116.4645561 301.16287929 114.98774165 297.04715787 113.51158333 292.93120003 C113.27259756 292.26482962 113.03361179 291.59845921 112.78738403 290.91189575 C112.55021793 290.25060795 112.31305183 289.58932014 112.06869888 288.90799332 C111.36036571 286.93163205 110.65319494 284.9548581 109.94625854 282.97799683 C106.99925305 274.74322546 104.01139949 266.52483384 100.91923523 258.3433075 C99 253.21373969 99 253.21373969 99 251 C58.08 251.33 17.16 251.66 -25 252 C-30.61 267.84 -36.22 283.68 -42 300 C-55.6214511 337.43217666 -55.6214511 337.43217666 -58 341 C-60.60531616 341.39440918 -60.60531616 341.39440918 -63.94677734 341.41992188 C-65.19502289 341.43583374 -66.44326843 341.45174561 -67.7293396 341.46813965 C-69.09820499 341.46940698 -70.46707177 341.46958372 -71.8359375 341.46875 C-73.23597521 341.47584867 -74.63601 341.48354723 -76.03604126 341.49182129 C-78.97332844 341.50528308 -81.91034681 341.50682799 -84.84765625 341.50097656 C-88.60980479 341.49508599 -92.37066031 341.52563463 -96.13255882 341.56609344 C-99.02541029 341.59196357 -101.91795044 341.59484847 -104.81090164 341.59120178 C-106.19758981 341.59289449 -107.58429213 341.60255176 -108.97086716 341.62034607 C-110.91193019 341.6425096 -112.85329743 341.62963244 -114.79443359 341.61523438 C-116.45084366 341.61831604 -116.45084366 341.61831604 -118.14071655 341.62145996 C-121 341 -121 341 -123.39315796 338.63894653 C-125 336 -125 336 -124.91503906 333.16162109 C-123.86212332 329.5236118 -122.68057772 325.96137961 -121.359375 322.4140625 C-121.08581177 321.66703568 -120.81224854 320.92000885 -120.53039551 320.15034485 C-119.60907754 317.63984276 -118.67971561 315.1324033 -117.75 312.625 C-117.07754891 310.80030391 -116.4053559 308.97551269 -115.73339844 307.15063477 C-107.33957471 284.39337391 -98.78722092 261.69475257 -90.25169849 238.99037743 C-85.10031893 225.28712165 -79.95531745 211.5814711 -74.8125 197.875 C-74.52931286 197.12033825 -74.24612572 196.3656765 -73.95435715 195.58814621 C-64.92258643 171.51868535 -55.94574369 147.42926667 -47.00600433 123.32548523 C-37.72366337 98.29807189 -28.38316325 73.29297557 -19.0012207 48.30273438 C-18.64978862 47.36659742 -18.64978862 47.36659742 -18.2912569 46.41154861 C-17.15399295 43.38254671 -16.01585435 40.3538773 -14.87660217 37.32562256 C-12.70172373 31.54313029 -10.53658629 25.75734087 -8.39111328 19.96386719 C-7.77098106 18.29443558 -7.77098106 18.29443558 -7.13832092 16.59127808 C-6.3618755 14.499792 -5.588447 12.40718248 -4.81858826 10.31326294 C-4.47570267 9.39117035 -4.13281708 8.46907776 -3.77954102 7.51904297 C-3.33409691 6.31246536 -3.33409691 6.31246536 -2.87965393 5.08151245 C-2 3 -2 3 0 0 Z " fill="#FFFFFF" transform="translate(197,219)"/>
<path d="M0 0 C1.00023193 0.00523682 2.00046387 0.01047363 3.03100586 0.01586914 C4.1105957 0.0190918 5.19018555 0.02231445 6.30249023 0.02563477 C8.00695312 0.03820312 8.00695312 0.03820312 9.74584961 0.05102539 C11.45611328 0.05779297 11.45611328 0.05779297 13.20092773 0.06469727 C16.02845312 0.07652792 18.85587601 0.09301129 21.68334961 0.11352539 C25.64912032 8.57237757 29.18270204 17.18069 32.62084961 25.86352539 C33.12515796 27.13185357 33.62971454 28.40008308 34.13452148 29.66821289 C35.13880138 32.19183156 36.1417567 34.71597054 37.14379883 37.24047852 C39.64440675 43.53651144 42.16478329 49.82466025 44.68334961 56.11352539 C48.00807635 48.9825147 51.06108902 41.80357853 53.85522461 34.44946289 C54.22311096 33.49077301 54.59099731 32.53208313 54.97003174 31.54434204 C56.12767767 28.5269528 57.28096183 25.50792633 58.43334961 22.48852539 C59.6002927 19.433527 60.76824334 16.37893399 61.93951416 13.32559204 C62.66439932 11.43577732 63.38676772 9.54499494 64.10638428 7.65316772 C64.43052307 6.80783478 64.75466187 5.96250183 65.08862305 5.09155273 C65.51567535 3.97216812 65.51567535 3.97216812 65.95135498 2.83016968 C66.68334961 1.11352539 66.68334961 1.11352539 67.68334961 0.11352539 C69.45194154 0.01406086 71.22446412 -0.01727678 72.99584961 -0.01928711 C74.07092773 -0.02057617 75.14600586 -0.02186523 76.25366211 -0.02319336 C77.38545898 -0.01932617 78.51725586 -0.01545898 79.68334961 -0.01147461 C80.81514648 -0.0153418 81.94694336 -0.01920898 83.11303711 -0.02319336 C84.18811523 -0.0219043 85.26319336 -0.02061523 86.37084961 -0.01928711 C87.3647168 -0.01815918 88.35858398 -0.01703125 89.38256836 -0.01586914 C91.68334961 0.11352539 91.68334961 0.11352539 92.68334961 1.11352539 C92.78380014 3.78602607 92.8195161 6.4327112 92.81274414 9.10571289 C92.81537262 10.36173309 92.81537262 10.36173309 92.8180542 11.64312744 C92.82247362 14.42494753 92.81953441 17.2067046 92.81616211 19.98852539 C92.81683512 21.91284192 92.81780513 23.83715837 92.81906128 25.76147461 C92.82053837 29.80005704 92.81838332 33.8386174 92.8137207 37.87719727 C92.80802341 43.0662105 92.81130235 48.25517202 92.81729317 53.44418335 C92.82089847 57.41943759 92.81976034 61.39467948 92.81716537 65.36993408 C92.81649602 67.28379319 92.81732483 69.19765341 92.81964493 71.11151123 C92.82217094 73.78148389 92.81833159 76.45137159 92.81274414 79.12133789 C92.81476837 79.92033508 92.8167926 80.71933228 92.81887817 81.5425415 C92.7976121 86.9992629 92.7976121 86.9992629 91.68334961 88.11352539 C88.83999913 88.21339514 86.02637798 88.2523042 83.18334961 88.23852539 C81.98645508 88.24432617 81.98645508 88.24432617 80.76538086 88.25024414 C74.80995728 88.24013306 74.80995728 88.24013306 73.68334961 87.11352539 C73.56081411 85.57969861 73.50557023 84.0404202 73.47802734 82.50195312 C73.44810951 81.03054115 73.44810951 81.03054115 73.41758728 79.52940369 C73.40087479 78.46274979 73.38416229 77.39609589 73.36694336 76.29711914 C73.34616226 75.21092789 73.32538116 74.12473663 73.30397034 73.00563049 C73.23835519 69.52082912 73.1795345 66.03594971 73.12084961 62.55102539 C73.07767576 60.19489739 73.03406185 57.8387774 72.98999023 55.48266602 C72.88266169 49.69303602 72.78091796 43.90332764 72.68334961 38.11352539 C63.85580758 60.58191867 63.85580758 60.58191867 55.67163086 83.28930664 C54.68334961 86.11352539 54.68334961 86.11352539 53.68334961 88.11352539 C48.07334961 88.11352539 42.46334961 88.11352539 36.68334961 88.11352539 C30.08334961 71.61352539 23.48334961 55.11352539 16.68334961 38.11352539 C16.39396917 54.19436536 16.39396917 54.19436536 16.11523438 70.27539062 C16.07712952 72.28264087 16.03866195 74.28988427 15.99975586 76.29711914 C15.97504211 77.87644226 15.97504211 77.87644226 15.9498291 79.4876709 C15.92964722 80.48238403 15.90946533 81.47709717 15.88867188 82.50195312 C15.87312759 83.37021225 15.85758331 84.23847137 15.84156799 85.13304138 C15.68334961 87.11352539 15.68334961 87.11352539 14.68334961 88.11352539 C11.83999913 88.21339514 9.02637798 88.2523042 6.18334961 88.23852539 C5.38541992 88.24239258 4.58749023 88.24625977 3.76538086 88.25024414 C-2.19004272 88.24013306 -2.19004272 88.24013306 -3.31665039 87.11352539 C-3.41710092 84.44102472 -3.45281688 81.79433958 -3.44604492 79.12133789 C-3.44779724 78.28399109 -3.44954956 77.44664429 -3.45135498 76.58392334 C-3.4557744 73.80210325 -3.45283519 71.02034618 -3.44946289 68.23852539 C-3.4501359 66.31420886 -3.45110591 64.38989241 -3.45236206 62.46557617 C-3.45383916 58.42699374 -3.4516841 54.38843339 -3.44702148 50.34985352 C-3.44132419 45.16084028 -3.44460313 39.97187877 -3.45059395 34.78286743 C-3.45419925 30.80761319 -3.45306112 26.8323713 -3.45046616 22.8571167 C-3.4497968 20.94325759 -3.45062561 19.02939737 -3.45294571 17.11553955 C-3.45547172 14.44556689 -3.45163237 11.77567919 -3.44604492 9.10571289 C-3.44806915 8.3067157 -3.45009338 7.50771851 -3.45217896 6.68450928 C-3.42678237 0.16792642 -3.42678237 0.16792642 0 0 Z " fill="#FBFBFB" transform="translate(347.316650390625,588.886474609375)"/>
<path d="M0 0 C2.15430533 3.23145799 3.27204838 6.41086573 4.4765625 10.05859375 C4.9789516 11.55147729 5.48148146 13.04431346 5.98413086 14.53710938 C6.38340286 15.73049927 6.38340286 15.73049927 6.79074097 16.94799805 C11.96092197 32.37627054 17.35865405 47.71507131 22.9375 63 C23.4354306 64.36519272 23.4354306 64.36519272 23.94342041 65.75796509 C27.64631645 75.90280421 31.37980208 86.03621928 35.12890625 96.1640625 C35.45801498 97.05397888 35.78712372 97.94389526 36.12620544 98.86077881 C37.69131783 103.09255541 39.25971367 107.32303911 40.83569336 111.55078125 C41.39056318 113.04683757 41.94533774 114.54292922 42.5 116.0390625 C42.75540054 116.72014069 43.01080109 117.40121887 43.27394104 118.10293579 C45 122.77320746 45 122.77320746 45 125 C15.63 125 -13.74 125 -44 125 C-40.62509135 113.75030451 -40.62509135 113.75030451 -39.06152344 109.390625 C-38.70921661 108.40428574 -38.35690979 107.41794647 -37.993927 106.40171814 C-37.61952484 105.36165115 -37.24512268 104.32158417 -36.859375 103.25 C-36.46007782 102.13424088 -36.06078064 101.01848175 -35.64938354 99.86891174 C-34.35194209 96.24509322 -33.05097208 92.62255232 -31.75 89 C-30.84918365 86.48568941 -29.94858497 83.97130214 -29.04833984 81.45678711 C-27.23303458 76.38724163 -25.41633303 71.31819894 -23.59863281 66.24951172 C-20.24525931 56.89698237 -16.90209196 47.54081653 -13.56115723 38.18383789 C-12.65684571 35.65167132 -11.75185264 33.11974936 -10.84667969 30.58789062 C-7.20590148 20.40076821 -3.59285222 10.2041228 0 0 Z " fill="#000000" transform="translate(234,290)"/>
<path d="M0 0 C2.949375 -0.020625 5.89875 -0.04125 8.9375 -0.0625 C9.86812256 -0.071604 10.79874512 -0.08070801 11.75756836 -0.09008789 C12.48596924 -0.09258545 13.21437012 -0.09508301 13.96484375 -0.09765625 C14.7137085 -0.10289307 15.46257324 -0.10812988 16.23413086 -0.11352539 C18 0 18 0 19 1 C19.09517803 3.76938966 19.12554265 6.51377159 19.11352539 9.28344727 C19.11367142 10.15166107 19.11381744 11.01987488 19.1139679 11.91439819 C19.11326846 14.79842586 19.10547463 17.6823898 19.09765625 20.56640625 C19.09579218 22.56037867 19.09436823 24.55435155 19.09336853 26.54832458 C19.08954248 31.80745702 19.07971145 37.06656203 19.06866455 42.32568359 C19.0584523 47.68782175 19.05387131 53.04996431 19.04882812 58.41210938 C19.03808926 68.94142027 19.02049176 79.47070357 19 90 C12.73 90 6.46 90 0 90 C-0.33 89.01 -0.66 88.02 -1 87 C-1.598125 87.474375 -2.19625 87.94875 -2.8125 88.4375 C-8.9604996 92.82892828 -18.71380546 91.60130421 -26 91 C-31.84657645 89.72633636 -36.13165188 86.85339721 -39.71484375 82.0625 C-46.78536622 70.71527853 -46.71305195 56.3052171 -44.33984375 43.4140625 C-41.88204372 35.81722605 -37.16848037 29.41001715 -30.125 25.5 C-25.63876082 23.77036562 -21.19329006 23.58648763 -16.4375 23.5 C-15.37523193 23.47196289 -15.37523193 23.47196289 -14.29150391 23.44335938 C-8.11878439 23.51771226 -6.09476651 24.95261675 0 28 C0 18.76 0 9.52 0 0 Z " fill="#FBFBFB" transform="translate(573,587)"/>
<path d="M0 0 C7.26 0 14.52 0 22 0 C26.50133796 10.12801041 26.50133796 10.12801041 27.90356445 13.91113281 C28.22102127 14.7636261 28.53847809 15.61611938 28.86555481 16.4944458 C29.3594294 17.835242 29.3594294 17.835242 29.86328125 19.203125 C30.21835251 20.16160339 30.57342377 21.12008179 30.93925476 22.10760498 C31.68777925 24.13076391 32.43481053 26.15447587 33.18041992 28.17871094 C34.29466482 31.20161385 35.41552991 34.2219995 36.53710938 37.2421875 C40.46934297 47.87055063 44.25732711 58.52948494 47.77742004 69.30206299 C48.17413155 70.515242 48.17413155 70.515242 48.57885742 71.75292969 C48.82300385 72.50392944 49.06715027 73.2549292 49.31869507 74.02868652 C50.01511992 76.14021394 50.01511992 76.14021394 51.19262695 78.64550781 C52 81 52 81 52 88 C45.73 88 39.46 88 33 88 C26 73.03448276 26 73.03448276 26 65 C16.43 65.33 6.86 65.66 -3 66 C-5.64 73.26 -8.28 80.52 -11 88 C-14.114375 88.020625 -17.22875 88.04125 -20.4375 88.0625 C-21.91174438 88.07615601 -21.91174438 88.07615601 -23.41577148 88.09008789 C-24.18477783 88.09258545 -24.95378418 88.09508301 -25.74609375 88.09765625 C-26.53685303 88.10289307 -27.3276123 88.10812988 -28.14233398 88.11352539 C-30 88 -30 88 -31 87 C-30.58061808 81.22816741 -29.29660752 76.43677542 -27.1484375 71.09375 C-26.85724533 70.3470253 -26.56605316 69.6003006 -26.26603699 68.83094788 C-25.63753864 67.22185939 -25.00496103 65.61435932 -24.36868286 64.0083313 C-22.66143793 59.69877132 -20.98374496 55.37767954 -19.30078125 51.05859375 C-18.77553108 49.71461769 -18.77553108 49.71461769 -18.2396698 48.3434906 C-14.25021588 38.11961797 -10.40299586 27.84304677 -6.5625 17.5625 C-5.89962945 15.7903449 -5.23670762 14.01820897 -4.57373047 12.24609375 C-3.04709253 8.16482724 -1.52360742 4.08240344 0 0 Z " fill="#FBFBFB" transform="translate(102,589)"/>
<path d="M0 0 C0.87551514 0.00757324 1.75103027 0.01514648 2.65307617 0.02294922 C11.89102025 0.25773233 19.84483057 2.21947983 26.6953125 8.7421875 C34.49341567 17.98911858 34.91702669 29.89828032 34.125 41.4375 C32.48526611 50.56974055 28.32007588 56.57699035 21.61328125 62.82421875 C14.81238425 67.23359153 7.63013863 67.96739823 -0.3125 67.875 C-1.23828857 67.86597656 -2.16407715 67.85695313 -3.11791992 67.84765625 C-12.25207141 67.61537054 -18.40332408 65.97538047 -25.25 59.75 C-33.20502728 51.12000071 -34.18950113 41.3308844 -34.09375 29.984375 C-33.43619372 19.32256954 -29.05365733 12.21419366 -21.36328125 5.05078125 C-14.74989217 0.76297954 -7.73400074 -0.09403494 0 0 Z " fill="#FBFBFB" transform="translate(486.875,610.5625)"/>
<path d="M0 0 C1.18613892 0.00785522 1.18613892 0.00785522 2.39624023 0.01586914 C3.16524658 0.0183667 3.93425293 0.02086426 4.7265625 0.0234375 C5.70939209 0.0325415 6.69222168 0.04164551 7.70483398 0.05102539 C12.37639648 0.08196289 12.37639648 0.08196289 17.14233398 0.11352539 C17.47233398 9.35352539 17.80233398 18.59352539 18.14233398 28.11352539 C20.78233398 26.79352539 23.42233398 25.47352539 26.14233398 24.11352539 C28.98637518 23.73580117 31.32846753 23.53536243 34.14233398 23.61352539 C34.84003906 23.62488525 35.53774414 23.63624512 36.2565918 23.64794922 C43.21261234 23.91054794 47.4234439 25.46811883 52.45483398 30.36352539 C57.00825264 37.78391135 57.56332073 44.09331353 57.43530273 52.61352539 C57.43105789 53.68981201 57.42681305 54.76609863 57.42243958 55.875 C57.40574424 59.28810409 57.36810841 62.70060194 57.32983398 66.11352539 C57.31477536 68.43773557 57.30108902 70.76195507 57.28881836 73.08618164 C57.25587073 78.7621672 57.205763 84.43780296 57.14233398 90.11352539 C53.99651975 90.14241053 50.8507393 90.16028462 47.70483398 90.17602539 C46.80700195 90.1844043 45.90916992 90.1927832 44.98413086 90.20141602 C43.703125 90.20625 43.703125 90.20625 42.39624023 90.21118164 C41.60548096 90.21641846 40.81472168 90.22165527 40 90.22705078 C38.14233398 90.11352539 38.14233398 90.11352539 37.14233398 89.11352539 C37.01901106 86.14384839 36.95615966 83.19386645 36.93139648 80.22290039 C36.90331871 78.38044373 36.87465419 76.53799593 36.84545898 74.69555664 C36.80424083 71.78133476 36.76736797 68.86727674 36.7409668 65.95288086 C36.71331972 63.14670242 36.6674361 60.34128489 36.61889648 57.53540039 C36.61564362 56.66751892 36.61239075 55.79963745 36.60903931 54.90545654 C36.51463928 50.24857976 36.35906985 46.77695369 33.14233398 43.11352539 C29.89307377 42.58945116 28.21395516 42.36361788 25.14233398 43.11352539 C21.36222408 45.98969597 19.5414385 48.63203068 18.14233398 53.11352539 C17.90998829 56.00219079 17.77088686 58.80493766 17.72827148 61.69555664 C17.70890533 62.50973557 17.68953918 63.32391449 17.66958618 64.1627655 C17.61004646 66.75041391 17.56350816 69.33810742 17.51733398 71.92602539 C17.47913059 73.68580988 17.44007749 75.44557613 17.40014648 77.20532227 C17.30436616 81.50790773 17.22024113 85.81058069 17.14233398 90.11352539 C13.99651975 90.14241053 10.8507393 90.16028462 7.70483398 90.17602539 C6.80700195 90.1844043 5.90916992 90.1927832 4.98413086 90.20141602 C3.703125 90.20625 3.703125 90.20625 2.39624023 90.21118164 C1.60548096 90.21641846 0.81472168 90.22165527 0 90.22705078 C-1.85766602 90.11352539 -1.85766602 90.11352539 -2.85766602 89.11352539 C-2.95815125 86.38001791 -2.99382863 83.67174647 -2.98706055 80.93774414 C-2.98881287 80.0808902 -2.99056519 79.22403625 -2.99237061 78.34121704 C-2.99679019 75.49446619 -2.99385076 72.64777692 -2.99047852 69.80102539 C-2.99115152 67.83186837 -2.99212152 65.86271143 -2.99337769 63.89355469 C-2.9948548 59.76081554 -2.99269966 55.62809797 -2.98803711 51.49536133 C-2.98233982 46.18528018 -2.98561875 40.87524958 -2.99160957 35.56517029 C-2.99521481 31.49726986 -2.99407677 27.4293815 -2.99148178 23.36148071 C-2.99081241 21.40296421 -2.99164129 19.44444664 -2.99396133 17.4859314 C-2.99648725 14.75369339 -2.99264813 12.02153842 -2.98706055 9.28930664 C-2.98908478 8.47160797 -2.99110901 7.6539093 -2.99319458 6.81143188 C-2.96794307 0.18137647 -2.96794307 0.18137647 0 0 Z " fill="#FAFAFA" transform="translate(271.857666015625,586.886474609375)"/>
<path d="M0 0 C0.75539063 -0.01160156 1.51078125 -0.02320313 2.2890625 -0.03515625 C9.79361439 0.00352701 16.5591366 1.9341366 22 7.375 C29.03885178 16.05274861 31.06795471 27.42846424 30 38.375 C29 39.375 29 39.375 25.21459961 39.48852539 C23.52717271 39.48836622 21.83974095 39.48266917 20.15234375 39.47265625 C18.82270348 39.47053383 18.82270348 39.47053383 17.46620178 39.46836853 C14.62326746 39.46275215 11.78041069 39.45019691 8.9375 39.4375 C7.01497509 39.43248711 5.09244896 39.42792384 3.16992188 39.42382812 C-1.55341549 39.41277741 -6.27669458 39.39550183 -11 39.375 C-10.40361667 40.64950447 -9.79752584 41.91946877 -9.1875 43.1875 C-8.85105469 43.89519531 -8.51460937 44.60289062 -8.16796875 45.33203125 C-6.28522104 48.62526554 -4.8356522 50.11501932 -1.1875 51.25 C2.85105126 51.40837456 4.63395433 50.59515778 8 48.375 C8.9288281 47.34121957 9.82500623 46.27723763 10.6875 45.1875 C11.450625 44.259375 12.21375 43.33125 13 42.375 C13.99 42.375 14.98 42.375 16 42.375 C16 43.035 16 43.695 16 44.375 C16.680625 44.478125 17.36125 44.58125 18.0625 44.6875 C21.68459539 45.53522445 24.71863099 46.608109 28 48.375 C28.9453125 50.66796875 28.9453125 50.66796875 29 53.375 C27.4453125 55.91015625 27.4453125 55.91015625 25.125 58.4375 C24.01511719 59.69240234 24.01511719 59.69240234 22.8828125 60.97265625 C16.00141552 66.70715373 9.28866312 68.02851377 0.5 67.875 C-0.82837891 67.89820313 -0.82837891 67.89820313 -2.18359375 67.921875 C-9.77210964 67.87730222 -15.84348594 65.95760241 -21.75 61.125 C-30.80840199 50.05361979 -31.91379459 39.36308638 -31 25.375 C-29.47412342 16.69866526 -25.68107374 10.61814299 -19.171875 4.76953125 C-13.07458326 0.85454357 -7.14061707 -0.10966818 0 0 Z " fill="#FAFAFA" transform="translate(736,610.625)"/>
<path d="M0 0 C7.25067563 5.49246459 10.54514319 11.64225609 12.8203125 20.37890625 C12.8203125 25.65890625 12.8203125 30.93890625 12.8203125 36.37890625 C-0.3796875 36.37890625 -13.5796875 36.37890625 -27.1796875 36.37890625 C-25.8596875 39.67890625 -24.5396875 42.97890625 -23.1796875 46.37890625 C-18.23154253 48.42885202 -15.98102027 48.93316249 -10.9296875 47.37890625 C-7.66942411 45.00780561 -5.60536027 42.58935551 -3.1796875 39.37890625 C7.96923362 42.80373823 7.96923362 42.80373823 10.8203125 45.37890625 C11.67790865 49.02368988 11.50289783 51.21372874 9.59375 54.47265625 C5.28166607 59.94961594 0.68062429 63.07879949 -6.1796875 64.37890625 C-9.5564395 64.67943211 -12.91548378 64.78175624 -16.3046875 64.81640625 C-17.57542114 64.831875 -17.57542114 64.831875 -18.87182617 64.84765625 C-26.88918975 64.73505503 -33.55504484 62.75357998 -39.57421875 57.2578125 C-48.54186551 46.76282931 -48.13879914 33.39323493 -47.1796875 20.37890625 C-45.83142498 13.59362858 -43.24038694 8.10222573 -38.1796875 3.37890625 C-27.77907553 -3.46163962 -11.42275442 -6.42809906 0 0 Z " fill="#FAFAFA" transform="translate(651.1796875,613.62109375)"/>
<path d="M0 0 C5.02318102 3.79801492 8.43163491 8.08063721 9.76171875 14.33203125 C9.88671875 17.70703125 9.88671875 17.70703125 9.76171875 20.33203125 C6.01936556 22.78192226 2.31946456 22.56289268 -1.98828125 22.45703125 C-3.03435547 22.44349609 -3.03435547 22.44349609 -4.1015625 22.4296875 C-5.81395083 22.40623013 -7.52616129 22.37036229 -9.23828125 22.33203125 C-10.55828125 19.69203125 -11.87828125 17.05203125 -13.23828125 14.33203125 C-16.56970403 13.83077842 -16.56970403 13.83077842 -20.23828125 14.33203125 C-25.43726751 20.21509465 -25.59415711 26.63856915 -25.51953125 34.17578125 C-25.10224536 38.85865624 -24.04896679 43.49049257 -21.23828125 47.33203125 C-18.53775297 48.19300838 -16.87514561 48.48188169 -14.11328125 47.83203125 C-11.30295028 45.58376647 -10.56986993 42.61210279 -9.23828125 39.33203125 C-6.4463592 39.27822547 -3.65546715 39.23845456 -0.86328125 39.20703125 C-0.06921875 39.19027344 0.72484375 39.17351563 1.54296875 39.15625 C3.6166389 39.13867652 5.69055116 39.22867957 7.76171875 39.33203125 C8.42171875 39.99203125 9.08171875 40.65203125 9.76171875 41.33203125 C9.55686567 47.27277058 8.41482512 52.53052288 4.76171875 57.33203125 C-4.74250308 65.25508055 -14.3472948 65.26989711 -26.23828125 64.33203125 C-32.16368511 63.06936496 -36.26495584 60.15955574 -39.95703125 55.390625 C-47.01636279 44.04834535 -47.87496679 30.47996896 -44.9296875 17.6484375 C-42.25905002 8.70104754 -37.2827332 3.12447071 -29.23828125 -1.66796875 C-20.69755238 -4.29480654 -7.86175085 -4.37107169 0 0 Z " fill="#FAFAFA" transform="translate(252.23828125,613.66796875)"/>
<path d="M0 0 C0.804375 -0.00128906 1.60875 -0.00257813 2.4375 -0.00390625 C3.283125 -0.00003906 4.12875 0.00382813 5 0.0078125 C6.2684375 0.00201172 6.2684375 0.00201172 7.5625 -0.00390625 C8.366875 -0.00261719 9.17125 -0.00132812 10 0 C10.7425 0.00112793 11.485 0.00225586 12.25 0.00341797 C14 0.1328125 14 0.1328125 15 1.1328125 C15.09517803 3.90220216 15.12554265 6.64658409 15.11352539 9.41625977 C15.11367142 10.28447357 15.11381744 11.15268738 15.1139679 12.04721069 C15.11326846 14.93123836 15.10547463 17.8152023 15.09765625 20.69921875 C15.09579218 22.69319117 15.09436823 24.68716405 15.09336853 26.68113708 C15.08954248 31.94026952 15.07971145 37.19937453 15.06866455 42.45849609 C15.0584523 47.82063425 15.05387131 53.18277681 15.04882812 58.54492188 C15.03808926 69.07423083 15.0210118 79.60351939 15 90.1328125 C11.85418577 90.16169764 8.70840531 90.17957173 5.5625 90.1953125 C4.66466797 90.20369141 3.76683594 90.21207031 2.84179688 90.22070312 C1.56079102 90.22553711 1.56079102 90.22553711 0.25390625 90.23046875 C-0.53685303 90.23570557 -1.3276123 90.24094238 -2.14233398 90.24633789 C-4 90.1328125 -4 90.1328125 -5 89.1328125 C-5.10048523 86.39930502 -5.13616261 83.69103358 -5.12939453 80.95703125 C-5.13114685 80.10017731 -5.13289917 79.24332336 -5.13470459 78.36050415 C-5.13912417 75.5137533 -5.13618475 72.66706403 -5.1328125 69.8203125 C-5.13348551 67.85115548 -5.13445551 65.88199853 -5.13571167 63.9128418 C-5.13718879 59.78010265 -5.13503364 55.64738508 -5.13037109 51.51464844 C-5.1246738 46.20456729 -5.12795273 40.89453669 -5.13394356 35.5844574 C-5.1375488 31.51655697 -5.13641076 27.44866861 -5.13381577 23.38076782 C-5.13314639 21.42225132 -5.13397527 19.46373374 -5.13629532 17.50521851 C-5.13882124 14.7729805 -5.13498211 12.04082553 -5.12939453 9.30859375 C-5.13141876 8.49089508 -5.13344299 7.67319641 -5.13552856 6.83071899 C-5.10954236 0.00776189 -5.10954236 0.00776189 0 0 Z " fill="#FAFAFA" transform="translate(679,586.8671875)"/>
<path d="M0 0 C1 1 1 1 1.09765625 4.59765625 C1.0909822 6.08596867 1.07902183 7.57426432 1.0625 9.0625 C1.05798828 9.82111328 1.05347656 10.57972656 1.04882812 11.36132812 C1.0370068 13.24091871 1.01907078 15.12046899 1 17 C0.18015625 17.09796875 -0.6396875 17.1959375 -1.484375 17.296875 C-2.56203125 17.44640625 -3.6396875 17.5959375 -4.75 17.75 C-5.81734375 17.88921875 -6.8846875 18.0284375 -7.984375 18.171875 C-11.59379132 19.16306186 -12.77583181 20.0022081 -15 23 C-17.47234426 28.66962432 -18.45746887 33.28832501 -18.51171875 39.4375 C-18.52966995 40.20304199 -18.54762115 40.96858398 -18.56611633 41.75732422 C-18.61973955 44.17149556 -18.65395823 46.58547485 -18.6875 49 C-18.72071568 50.64976605 -18.75520919 52.2995069 -18.79101562 53.94921875 C-18.8754372 57.96600605 -18.94247438 61.98274117 -19 66 C-22.14581423 66.02888514 -25.29159469 66.04675923 -28.4375 66.0625 C-29.33533203 66.07087891 -30.23316406 66.07925781 -31.15820312 66.08789062 C-32.43920898 66.09272461 -32.43920898 66.09272461 -33.74609375 66.09765625 C-34.53685303 66.10289307 -35.3276123 66.10812988 -36.14233398 66.11352539 C-38 66 -38 66 -39 65 C-39.09925773 63.04175302 -39.12799414 61.07990103 -39.12939453 59.11914062 C-39.13254669 57.86113647 -39.13569885 56.60313232 -39.13894653 55.30700684 C-39.13715675 53.92342087 -39.1351058 52.53983522 -39.1328125 51.15625 C-39.13348559 49.74759911 -39.13445565 48.33894834 -39.13571167 46.93029785 C-39.13718842 43.97451677 -39.13503483 41.01876586 -39.13037109 38.06298828 C-39.12467381 34.26625416 -39.12795293 30.46959072 -39.13394356 26.67285919 C-39.13754979 23.76303572 -39.1364103 20.85322912 -39.13381577 17.94340515 C-39.13314667 16.543106 -39.13397432 15.14280533 -39.13629532 13.74250793 C-39.13882283 11.78862536 -39.13429033 9.83473745 -39.12939453 7.88085938 C-39.12859894 6.76690796 -39.12780334 5.65295654 -39.12698364 4.50524902 C-39 2 -39 2 -38 1 C-36.65732587 0.91368126 -35.31025678 0.89293527 -33.96484375 0.90234375 C-33.15595703 0.90556641 -32.34707031 0.90878906 -31.51367188 0.91210938 C-30.66353516 0.92048828 -29.81339844 0.92886719 -28.9375 0.9375 C-28.08349609 0.94201172 -27.22949219 0.94652344 -26.34960938 0.95117188 C-24.23304337 0.96299627 -22.11651315 0.98093231 -20 1 C-19.67 1.99 -19.34 2.98 -19 4 C-17.9171875 3.01 -17.9171875 3.01 -16.8125 2 C-11.92589158 -1.34036276 -5.65246688 -0.49327679 0 0 Z " fill="#FBFBFB" transform="translate(201,611)"/>
<path d="M0 0 C1.73830078 0.00966797 1.73830078 0.00966797 3.51171875 0.01953125 C6.3125 0.1875 6.3125 0.1875 7.3125 1.1875 C7.38569621 3.88404854 7.40492537 6.55441458 7.375 9.25 C7.37048828 10.00861328 7.36597656 10.76722656 7.36132812 11.54882812 C7.3495068 13.42841871 7.33157078 15.30796899 7.3125 17.1875 C6.50425781 17.26226563 5.69601562 17.33703125 4.86328125 17.4140625 C-2.16836474 18.04801721 -2.16836474 18.04801721 -7.8125 21.8125 C-11.24602828 27.99285091 -11.9831688 34.21228379 -12.1015625 41.1875 C-12.12092865 41.9086499 -12.1402948 42.6297998 -12.1602478 43.37280273 C-12.21935263 45.64425353 -12.26614775 47.91575695 -12.3125 50.1875 C-12.35074366 51.74090579 -12.38979896 53.29429183 -12.4296875 54.84765625 C-12.52650296 58.62749302 -12.60661425 62.40715565 -12.6875 66.1875 C-18.6275 66.1875 -24.5675 66.1875 -30.6875 66.1875 C-30.6875 44.7375 -30.6875 23.2875 -30.6875 1.1875 C-25.0775 1.1875 -19.4675 1.1875 -13.6875 1.1875 C-13.6875 2.5075 -13.6875 3.8275 -13.6875 5.1875 C-13.0275 5.1875 -12.3675 5.1875 -11.6875 5.1875 C-11.3575 4.1975 -11.0275 3.2075 -10.6875 2.1875 C-7.30352148 -0.23192407 -4.05433605 -0.04994143 0 0 Z " fill="#FEFEFE" transform="translate(807.6875,610.8125)"/>
<path d="M0 0 C4.31219558 3.78950521 5.8146583 7.96841487 6.30078125 13.546875 C6.46348164 20.15764873 6.1974335 25.43438388 2.0625 30.8125 C-1.61410045 33.89289497 -5.16961477 34.73168839 -9.9375 34.8125 C-14.59116772 33.57500783 -17.96475922 31.49781037 -20.4375 27.3125 C-23.32751066 20.38421552 -23.00662656 12.65844372 -20.25 5.75 C-16.09704928 -2.18227957 -7.9823292 -3.22689904 0 0 Z " fill="#020202" transform="translate(494.9375,628.1875)"/>
<path d="M0 0 C4.53657855 2.52032141 6.21172473 4.7649692 7.9375 9.625 C9.66696781 16.48147001 9.11616889 22.8747271 6.75 29.5 C4.08157876 33.31203034 1.45818864 34.56564594 -2.9375 35.875 C-6.93155777 36.03802277 -8.71996516 35.28176336 -12 33 C-16.65059141 26.96680034 -17.6527586 20.21324771 -16.7109375 12.69140625 C-14.54301515 2.97250014 -9.96973161 -1.58493169 0 0 Z " fill="#040404" transform="translate(564,627)"/>
<path d="M0 0 C0.66 0 1.32 0 2 0 C3.33834986 3.78991493 4.66982663 7.58220836 6 11.375 C6.3815625 12.45523438 6.763125 13.53546875 7.15625 14.6484375 C7.5171875 15.6796875 7.878125 16.7109375 8.25 17.7734375 C8.58515625 18.72653809 8.9203125 19.67963867 9.265625 20.66162109 C10 23 10 23 10 25 C4.06 25 -1.88 25 -8 25 C-5.54258108 16.59304054 -2.79908648 8.29768718 0 0 Z " fill="#0F0F0F" transform="translate(112,614)"/>
<path d="M0 0 C3.19379728 0.62735304 4.83240788 1.99142607 6.96875 4.38671875 C7.29875 6.03671875 7.62875 7.68671875 7.96875 9.38671875 C1.36875 9.38671875 -5.23125 9.38671875 -12.03125 9.38671875 C-9.36674545 2.72545738 -7.6787326 -0.41545382 0 0 Z " fill="#111111" transform="translate(636.03125,626.61328125)"/>
<path d="M0 0 C3.68630756 1.00332968 4.95449834 3.36693486 6.9375 6.52734375 C6.9375 7.51734375 6.9375 8.50734375 6.9375 9.52734375 C0.6675 9.52734375 -5.6025 9.52734375 -12.0625 9.52734375 C-11.0625 4.52734375 -11.0625 4.52734375 -9 2.21484375 C-5.73947839 0.34177814 -3.7109486 -0.17570779 0 0 Z " fill="#0C0C0C" transform="translate(738.0625,626.47265625)"/>
</svg>
