<?xml version="1.0" standalone="no"?><!DOCTYPE svg PUBLIC "-//W3C//DTD SVG 1.1//EN" "http://www.w3.org/Graphics/SVG/1.1/DTD/svg11.dtd"><svg t="1773245635685" class="icon" viewBox="0 0 1050 1024" version="1.1" xmlns="http://www.w3.org/2000/svg" p-id="2237" xmlns:xlink="http://www.w3.org/1999/xlink" width="205.078125" height="200"><path d="M664.786051 981.11453c-43.743179 32.260376-116.823521 39.200821-164.881504 15.500034-133.636376-65.063385-273.241709-132.87494-406.414222-193.142154-48.241778-21.950359-49.39706-75.951043-3.31706-104.010393 113.54147-69.106872 228.203214-131.404581 328.467692-211.241573 40.732444-32.566701 103.275214-42.797949 146.125675-21.38147 119.204103 58.90188 255.431111 98.91665 396.576821 159.376411 51.007453 21.932855 63.024137 87.757675 22.703043 118.652718-99.389265 75.977299-211.084034 157.442188-319.260445 236.246427z" fill="#008C38" p-id="2238"></path><path d="M665.705026 951.042188c-43.743179 32.190359-117.532444 39.209573-165.905505 15.72759-134.476581-64.599521-273.556786-131.369573-404.926359-190.122667-47.602872-21.355214-47.480342-58.910632-1.015247-87.486359 114.486701-70.340923 228.807111-149.836581 327.382427-230.128684 40.067282-32.776752 100.789607-43.244308 142.642325-21.880342 116.403419 58.683077 251.133812 123.580171 392.165743 184.897642 50.928684 22.204171 64.275692 63.470496 25.031111 94.050461-96.737368 75.224615-207.145573 156.208137-315.374495 234.942359z" fill="#00A241" p-id="2239"></path><path d="M398.502291 660.768821c-7.623111-131.080752-13.18947-263.211761-13.338257-398.178462 128.393846 46.508855 255.789949 109.603009 378.424889 170.377846-8.883419 137.154735-24.611009 272.961641-42.132786 408.584752-96.072205-55.366017-204.992547-119.072821-322.953846-180.784136z" fill="#EDEDEE" p-id="2240"></path><path d="M398.502291 660.768821c-7.623111-131.080752-13.18947-263.211761-13.338257-398.178462 128.393846 46.508855 255.789949 109.603009 378.424889 170.377846-8.883419 137.154735-24.611009 272.961641-42.132786 408.584752-96.072205-55.366017-204.992547-119.072821-322.953846-180.784136z" fill="#DBDADA" p-id="2241"></path><path d="M919.805812 279.735795c25.223658 6.38906 50.569846 12.953162 76.056068 19.62229-3.815932 123.49265-28.01559 250.941265-58.595555 380.709197-77.859009 53.799385-149.792821 109.165402-215.880205 162.413402 17.302974-133.636376 32.838017-267.474051 41.826461-402.589539 51.882667-56.214974 105.253197-111.073368 156.593231-160.15535z" fill="#CCCCCC" p-id="2242"></path><path d="M115.676991 707.610256c-22.606769-87.521368-42.675419-173.659897-55.471042-257.032752 57.562803-14.423521 115.326906-30.282393 173.292307-46.797675 45.939966 52.679111 91.50359 109.900581 134.721641 169.003761 6.056479 99.81812 13.950906 198.936068 22.781812 297.992752-84.729436-54.893402-176.591863-110.950838-275.324718-163.166086z" fill="#DBDADA" p-id="2243"></path><path d="M558.185026 430.648889a50749.212444 50749.212444 0 0 1-4.848684 312.276239c-58.753094 45.861197-113.016342 89.070496-162.343385 127.789949-8.822154-98.899145-16.699077-197.868308-22.755555-297.546393 59.943385-44.758427 123.711453-93.236513 189.947624-142.519795z" fill="#B2B2B2" p-id="2244"></path><path d="M932.864 267.701607C776.594598 190.271453 622.171897 108.246427 475.529846 58.508034c-58.534291 80.28335-119.939282 159.052581-178.05347 232.045402 153.442462 46.403829 304.00547 118.083829 447.032889 185.895385 62.070154-73.421675 127.238564-145.766838 188.354735-208.747214z" fill="#D63A3D" p-id="2245"></path><path d="M932.864 267.701607C776.594598 190.271453 622.171897 108.246427 475.529846 58.508034c-58.534291 80.28335-119.939282 159.052581-178.05347 232.045402 153.442462 46.403829 304.00547 118.083829 447.032889 185.895385 62.070154-73.421675 127.238564-145.766838 188.354735-208.747214z" fill="#D63A3D" p-id="2246"></path><path d="M1045.696547 297.922735c-174.158769-84.33559-346.672137-181.134222-508.954256-244.36841-20.383726 1.137778-40.784957 2.791932-61.212445 4.953709 146.633299 49.747145 301.064752 131.763419 457.334154 209.202325a10550.175726 10550.175726 0 0 1 112.832547 30.212376z" fill="#FF4549" p-id="2247"></path><path d="M1045.696547 297.922735c-174.158769-84.33559-346.672137-181.134222-508.954256-244.36841-20.383726 1.137778-40.784957 2.791932-61.212445 4.953709 146.633299 49.747145 301.064752 131.763419 457.334154 209.202325a10550.175726 10550.175726 0 0 1 112.832547 30.212376z" fill="#FF4549" p-id="2248"></path><path d="M297.765197 309.61559C451.330188 357.568547 601.263043 429.336068 743.05641 496.701265c0.498872-6.747897 0.988991-13.495795 1.452855-20.243692C601.473094 408.637265 450.918838 336.957265 297.476376 290.544684c0.070017 6.362803 0.166291 12.716855 0.288821 19.070906z" fill="#8F0000" p-id="2249"></path><path d="M510.862222 70.997333c-56.582564 79.705709-116.184615 158.641231-172.609641 232.439248l-1.330325-0.472615c56.398769-73.798017 115.983316-152.768547 172.557129-232.544274 0.472615 0.183795 0.927726 0.385094 1.382837 0.577641zM399.552547 324.923077c56.407521-74.191863 115.808274-152.663521 171.865709-230.356239l1.330325 0.621401c-55.978667 77.657709-115.34441 156.129368-171.708171 230.338735a37.695453 37.695453 0 0 0-1.487863-0.603897zM461.736479 349.008957C518.494085 274.642051 578.122393 196.923077 634.10106 121.567179l1.277812 0.638906c-55.847385 75.373402-115.353162 153.127385-171.979487 227.555556l-1.662906-0.752684zM523.412786 374.748991c57.414017-74.366906 117.646222-151.14065 174.001231-223.984683l1.251556 0.647658c-56.162462 72.914051-116.193368 149.757812-173.432342 224.229743-0.61265-0.297573-1.216547-0.586393-1.820445-0.892718zM584.520205 401.679316c58.403009-74.226872 119.615453-149.906598 176.810667-220.107487l1.199043 0.630154c-56.923897 70.332171-117.88253 146.125675-176.031727 220.501333l-1.977983-1.024zM644.971214 429.353573a8142.664205 8142.664205 0 0 1 180.731624-215.967727l1.137777 0.595145a8287.678359 8287.678359 0 0 0-179.751384 216.501607l-2.118017-1.129025zM704.704547 457.369162c61.282462-73.692991 125.575658-146.948376 185.746598-211.679179l1.094017 0.560137c-59.750838 64.975863-123.676444 138.432547-184.591316 212.353094a108.071385 108.071385 0 0 1-2.249299-1.234052z" opacity=".11" p-id="2250"></path><path d="M743.625299 496.246154c62.945368-74.279385 129.452855-147.683556 192.371966-211.775453 35.06106 8.43706 70.349675 17.206701 105.935863 26.168889 1.277812-4.262291 2.53812-8.498325 3.754667-12.716855a10550.175726 10550.175726 0 0 0-112.832547-30.212376c-61.107419 62.980376-126.275829 135.325538-188.345983 208.747214-0.288821 6.599111-0.577641 13.198222-0.883966 19.788581z" fill="#730000" p-id="2251"></path><path d="M939.996991 456.012581c-6.406564 49.510838-14.721094 99.371761-24.243418 149.495248-45.966222 30.509949-90.190769 61.868855-132.551111 93.113983a5144.068376 5144.068376 0 0 0 19.526017-154.562735c44.460855-30.343658 90.348308-60.127179 137.268512-88.046496z" fill="#00A0C6" p-id="2252"></path><path d="M844.169846 655.815111c8.121983-49.160752 15.473778-98.277744 21.556513-147.280957l7.964444-5.137504c-6.152752 48.915692-13.592068 97.953915-21.845333 147.070906-2.564376 1.767932-5.128752 3.570872-7.675624 5.347555z" opacity=".41" p-id="2253"></path><path d="M801.967043 551.130803c44.364581-30.396171 90.208274-60.275966 137.128478-88.344068l0.883966-6.695385c-46.911453 27.901812-92.798906 57.659077-137.224752 87.958975-0.280068 2.363077-0.53388 4.717402-0.787692 7.080478z" opacity=".41" p-id="2254"></path><path d="M115.676991 707.610256c98.724103 52.215248 190.577778 108.246427 275.315966 163.113573 48.898188-38.334359 102.64506-81.088547 160.794257-126.44212 60.039658 34.115829 116.832274 67.400205 169.598906 98.207727 66.087385-53.248 138.029949-108.614017 215.880205-162.413402 4.157265-17.600547 8.192-35.148581 12.060444-52.652855-80.012034 51.69012-154.448957 105.734564-223.223248 157.967317-54.587077-29.057094-112.631248-60.267214-173.449846-92.054975-59.663316 44.697162-115.239385 87.004991-166.229333 125.138052-87.232547-52.556581-181.169231-105.769573-281.783795-154.387693 3.588376 14.45853 7.281778 28.978325 11.036444 43.524376z" fill="#5A3D1C" opacity=".39" p-id="2255"></path><path d="M141.837128 721.727453c-18.046906-74.787009-34.40465-148.803829-46.622632-221.30653 85.210803 30.10735 166.841983 66.209915 244.876034 104.281709 6.529094 82.558906 14.45853 164.785231 23.18441 246.976547-69.343179-43.743179-143.193709-87.906462-221.437812-129.951726z" fill="#C9C9C9" p-id="2256"></path><path d="M418.527179 849.062291c50.95494 31.25388 99.371761 62.05265 144.87412 91.363555a6051.708718 6051.708718 0 0 1 136.323282-116.736c-46.788923-25.206154-96.238496-52.048957-147.937367-79.556923-47.427829 37.047795-91.932444 72.362667-133.260035 104.929368z" opacity=".18" p-id="2257"></path><path d="M695.637333 821.449299c8.218256-75.443419 15.85012-151.026872 22.291693-226.977914-43.638154-22.204171-88.536615-44.950974-134.441573-67.522735-1.855453 77.675214-4.104752 154.597744-6.51159 231.17894 41.126291 21.819077 80.747214 43.104274 118.66147 63.321709z" fill="#5A3D1C" p-id="2258"></path><path d="M702.288957 601.017983a11666.18694 11666.18694 0 0 0-106.583521-53.116718c-0.936479 32.067829-1.969231 64.013128-3.054496 95.862154 16.060171 8.305778 31.936547 16.585299 47.620376 24.803555 1.837949-31.490188 3.588376-63.059145 5.207522-94.724376l12.681846 6.415317c-1.80294 31.62147-3.745915 63.164171-5.793915 94.61935 14.099692 7.404308 28.033094 14.74735 41.808957 22.011624l-1.470358 16.226461-41.432616-21.784068c-1.969231 29.608479-4.025983 59.164444-6.170256 88.667897-3.772171-2.004239-7.570598-3.999726-11.369026-6.003965 1.92547-29.617231 3.780923-59.251966 5.557607-88.956718-15.552547-8.139487-31.297641-16.340239-47.22653-24.602257-1.024 29.57347-2.100513 59.068171-3.212034 88.527864 32.960547 18.458256 64.905846 36.583932 95.713367 54.096957 6.51159-67.163897 12.550564-134.432821 17.723077-202.043077z" fill="#8B5C29" p-id="2259"></path><path d="M572.065915 706.516239c-2.406838 89.551863-5.041231 178.54359-7.815659 267.63159-5.382564-4.297299-10.835145-8.612103-16.322735-12.94441 1.619145-88.869197 3.212034-177.659624 4.699898-267.080205 6.520342 4.244786 13.005675 8.480821 19.438496 12.69935" fill="#E9E6E6" p-id="2260"></path><path d="M589.193846 693.843145a41888.689231 41888.689231 0 0 1-10.36253 267.815385l-14.58106 12.445538c2.756923-88.982974 5.382564-177.843419 7.815659-267.281504l17.127931-12.979419z" fill="#DEDEDE" p-id="2261"></path><path d="M572.083419 706.034872c-6.424068-4.209778-12.918154-8.454564-19.438496-12.690598 5.811419-3.719658 11.666598-7.474325 17.539282-11.22024 6.380308 3.658393 12.734359 7.299282 19.027145 10.957675l-17.127931 12.953163z" fill="#E4BC96" p-id="2262"></path><path d="M576.494496 721.412376c-65.133402-34.553436-133.73265-70.174632-205.307624-104.500513 53.816889-39.795966 111.020855-82.742701 170.736684-126.879726 72.765265 32.540444 143.500034 66.139897 211.451623 98.198974-62.420239 44.915966-121.540923 90.085744-176.880683 133.181265z" fill="#EBEBEB" p-id="2263"></path><path d="M371.195624 616.903111c0.253812 3.955966 0.516376 7.911932 0.787692 11.859145 71.251145 34.597197 139.456547 70.367179 204.14359 104.990633l0.376342-12.349265c-65.142154-34.544684-133.741402-70.16588-205.307624-104.500513z" fill="#DBDADA" p-id="2264"></path><path d="M753.383932 588.222359c-0.41135 4.139761-0.822701 8.288274-1.251556 12.41053-62.183932 44.994735-121.007043 90.120752-176.014222 133.12l0.376342-12.349265c55.339761-43.086769 114.469197-88.256547 176.889436-133.181265z" fill="#CCCCCC" p-id="2265"></path><path d="M569.807863 685.161026c-56.241231-29.144615-114.854291-58.823111-175.524102-87.556376 46.360068-34.395897 95.056957-70.874803 145.539282-108.185163 61.580034 27.499214 121.689709 55.777368 179.917675 83.250325-52.337778 37.931761-102.426256 75.907282-149.932855 112.491214z" fill="#F5F5F5" p-id="2266"></path><path d="M394.292513 597.60465l0.542632 10.152478c60.433504 28.899556 118.775248 58.674325 174.727658 87.845197 0.087521-3.48335 0.183795-6.957949 0.253812-10.441299-56.249983-29.144615-114.863043-58.823111-175.524102-87.556376z" fill="#E6E6E6" p-id="2267"></path><path d="M719.740718 572.669812l-0.875214 10.546325c-52.171487 37.949265-102.058667 75.881026-149.320205 112.39494 0.087521-3.48335 0.183795-6.957949 0.253812-10.441299 47.51535-36.592684 97.603829-74.568205 149.941607-112.499966z" fill="#CCCCCC" p-id="2268"></path><path d="M919.228171 587.023316c-3.395829 2.258051-6.765402 4.524855-10.152479 6.782906a2640.353368 2640.353368 0 0 0 19.744821-124.849231c3.422085-2.074256 6.844171-4.131009 10.275008-6.18776a2539.808821 2539.808821 0 0 1-19.86735 124.254085z" opacity=".41" p-id="2269"></path><path d="M393.653607 254.547145c-67.531487 53.974427-134.327795 106.049641-198.192137 153.179898 73.001573 56.214974 144.270222 121.602188 210.523898 189.422495 60.573538-46.710154 125.29559-97.017436 192.730803-147.841094-65.772308-67.470222-135.588103-134.616615-205.062564-194.761299z" fill="#D63A3D" p-id="2270"></path><path d="M194.831316 408.190906c-61.492513 16.410256-122.871248 32.032821-184.136205 46.018735 75.067077-46.710154 155.40294-102.723829 237.655521-164.365128a5830.375932 5830.375932 0 0 1 144.62906-34.772239c-67.513983 53.974427-134.301538 106.023385-198.148376 153.118632z" fill="#FF4549" p-id="2271"></path><path d="M408.339692 616.465504c-68.19665-70.034598-141.942154-137.70612-217.840683-195.794051-58.516786 14.659829-116.902291 28.601983-175.217778 41.108786l-4.594872-7.561846c61.466256-14.125949 123.055043-29.914803 184.766359-46.49135 73.001573 56.214974 144.270222 121.602188 210.523897 189.422495l2.363077 19.315966zM408.339692 616.465504c59.698325-46.421333 123.623932-96.492308 190.481505-147.228444l-0.096274-19.911111c-67.443966 50.823658-132.157265 101.139692-192.730803 147.849846l2.345572 19.289709z" fill="#A62D30" p-id="2272"></path><path d="M230.820103 381.838222c69.491966 56.722598 137.784889 121.891009 201.491692 189.203693l4.848684 2.030495c-64.652034-68.590496-134.091487-135.054222-204.764992-192.809572-60.722325 16.961641-121.36588 33.485675-181.991931 48.688136l-1.575385 1.024c60.634803-15.018667 121.278359-31.358906 181.991932-48.136752z" opacity=".14" p-id="2273"></path><path d="M296.34735 331.478427c67.855316 58.464274 135.203009 124.709197 198.218394 192.459488 1.627897 0.647658 3.255795 1.312821 4.883692 1.986735-63.969368-69.010598-132.46359-136.568342-201.48294-196.091624-54.333265 14.029675-108.736547 28.339419-163.341128 42.342837l-2.511864 1.785436c54.902154-14.029675 109.603009-28.400684 164.233846-42.482872z" opacity=".14" p-id="2274"></path><path d="M363.082393 278.825573c66.577504 60.617299 133.286291 128.236308 195.934086 196.608l4.927453 1.995487c-63.61053-69.623248-131.492103-138.572581-199.207385-200.310154a6824.478632 6824.478632 0 0 0-143.193709 32.592957l-3.474599 2.634393a7226.700581 7226.700581 0 0 1 145.014154-33.520683z" opacity=".14" p-id="2275"></path><path d="M521.075966 101.454769c-0.236308 59.085675-0.463863 117.374906-0.665163 175.007727a2349.441094 2349.441094 0 0 0-65.203418-32.409163c0.175043-57.055179 0.840205-114.723009 2.153025-173.17853a1643.738803 1643.738803 0 0 1 63.715556 31.551453" fill="#D59758" p-id="2276"></path><path d="M575.199179 58.394256c0.708923 59.453265 0.892718 118.083829 0.700171 176.040479a13355.060513 13355.060513 0 0 0-55.479794 41.878974c0.192547-57.265231 0.420103-115.17812 0.665162-173.887453 18.230701-14.896137 36.303863-29.617231 54.114461-44.032z" fill="#8B5C29" p-id="2277"></path><path d="M521.084718 100.019419a1623.302564 1623.302564 0 0 0-63.671795-31.542701c18.887111-15.753846 37.572923-31.402667 55.95241-46.797675a2006.436103 2006.436103 0 0 1 61.798838 34.273367 19505.011966 19505.011966 0 0 0-54.079453 44.067009z" fill="#E4BC96" p-id="2278"></path><path d="M521.102222 108.062632l-0.140034 33.468171a1672.68212 1672.68212 0 0 0-81.517402-38.553162c0.253812-11.001436 0.53388-22.046632 0.840205-33.100581a1576.34735 1576.34735 0 0 1 80.808479 39.410872" fill="#F2F2F2" p-id="2279"></path><path d="M589.692718 53.790632c0.183795 10.931419 0.341333 21.836581 0.481367 32.706736a13626.534291 13626.534291 0 0 0-69.211897 55.024683l0.131282-32.242872a15698.795214 15698.795214 0 0 1 68.599248-55.488547z" fill="#B2B2B2" p-id="2280"></path><path d="M521.09347 109.261675a1573.135316 1573.135316 0 0 0-80.808479-39.428376c24.059624-19.648547 47.795419-39.148308 71.049847-58.219214a1927.553094 1927.553094 0 0 1 78.366632 42.159043c-22.484239 18.046906-45.42359 36.645197-68.608 55.488547z" fill="#F6F6F7" p-id="2281"></path><path d="M520.288274 92.973949a1608.09135 1608.09135 0 0 0-55.742359-27.569231c15.23747-12.629333 30.334906-25.171145 45.248547-37.564171a1899.134906 1899.134906 0 0 1 54.114461 29.459692 17335.182222 17335.182222 0 0 0-43.620649 35.67371z" fill="#232327" p-id="2282"></path><path d="M455.207385 244.053333a3760.057983 3760.057983 0 0 1 102.907624 97.174975 7476.889162 7476.889162 0 0 0-37.704206-64.914599 2319.219966 2319.219966 0 0 0-65.203418-32.260376z" opacity=".14" p-id="2283"></path><path d="M575.89935 234.434735c8.139487 21.784068 16.235214 43.550632 24.208411 65.273436-14.047179 13.828376-28.050598 27.691761-41.984 41.528889a7476.889162 7476.889162 0 0 0-37.704205-64.914598c18.467009-14.020923 36.98653-28.01559 55.479794-41.887727z" opacity=".14" p-id="2284"></path><path d="M933.485402 592.204581c-47.59412 31.008821-93.367795 63.041641-137.180992 95.056957l-2.70441 18.379488c43.559385-32.52294 89.131761-65.142154 136.594598-96.833641 1.120274-5.540103 2.205538-11.080205 3.290804-16.602804z" fill="#A6A6A6" p-id="2285"></path><path d="M796.356923 687.22653c-4.069744-2.389333-8.139487-4.804923-12.226735-7.220513 43.769436-32.024068 89.481846-64.091897 136.962188-95.135726l12.716855 6.992957c-47.690393 31.096342-93.55159 63.251692-137.452308 95.363282z" fill="#D6D6D6" p-id="2286"></path><path d="M784.130188 680.006017c-0.831453 6.082735-1.671658 12.182974-2.520615 18.265709 4.017231 2.468103 8.025709 4.918701 11.999179 7.3693l2.721915-18.414496c-4.069744-2.389333-8.121983-4.796171-12.200479-7.220513z" fill="#B3B3B3" p-id="2287"></path><path d="M120.928274 524.375521c76.572444 29.214632 150.090393 62.787829 220.57135 97.848889l-1.409094-17.521778c-78.034051-38.089299-159.665231-74.174359-244.876034-104.281709 12.217983 72.502701 28.566974 146.519521 46.622632 221.297778 7.115487 3.824684 14.204718 7.649368 21.232684 11.50906-16.01641-70.314667-30.649983-140.112957-42.141538-208.85224z" fill="#ABABAB" p-id="2288"></path></svg>